<mxfile host="app.diagrams.net" modified="2024-05-22T06:28:10.477Z" agent="Mozilla/5.0 (Windows NT 10.0; Win64; x64) AppleWebKit/537.36 (KHTML, like Gecko) Chrome/125.0.0.0 Safari/537.36" etag="-XrfgB4heBKA6FMvAE7I" version="24.4.4" type="github">
  <diagram name="Сторінка-1" id="K3i0LmYE7urWuTt5bbvz">
    <mxGraphModel dx="1843" dy="757" grid="1" gridSize="10" guides="1" tooltips="1" connect="1" arrows="1" fold="1" page="1" pageScale="1" pageWidth="827" pageHeight="1169" math="0" shadow="0">
      <root>
        <mxCell id="0" />
        <mxCell id="1" parent="0" />
        <mxCell id="pLhTArJAU5WP38agBvPa-1" value="Персональний Комп&#39;ютер" style="verticalAlign=top;align=left;spacingTop=8;spacingLeft=2;spacingRight=12;shape=cube;size=10;direction=south;fontStyle=4;html=1;whiteSpace=wrap;" vertex="1" parent="1">
          <mxGeometry x="320" y="220" width="180" height="120" as="geometry" />
        </mxCell>
        <mxCell id="pLhTArJAU5WP38agBvPa-2" value="Локальна копія програми у формі веб-браузера" style="shape=module;align=left;spacingLeft=20;align=center;verticalAlign=top;whiteSpace=wrap;html=1;" vertex="1" parent="1">
          <mxGeometry x="330" y="260" width="140" height="50" as="geometry" />
        </mxCell>
        <mxCell id="pLhTArJAU5WP38agBvPa-3" value="Веб-сервер компанії (приватний сервер)" style="verticalAlign=top;align=left;spacingTop=8;spacingLeft=2;spacingRight=12;shape=cube;size=10;direction=south;fontStyle=4;html=1;whiteSpace=wrap;" vertex="1" parent="1">
          <mxGeometry x="320" y="400" width="180" height="280" as="geometry" />
        </mxCell>
        <mxCell id="pLhTArJAU5WP38agBvPa-4" value="Веб-інтерфейс" style="shape=module;align=left;spacingLeft=20;align=center;verticalAlign=top;whiteSpace=wrap;html=1;" vertex="1" parent="1">
          <mxGeometry x="350" y="450" width="100" height="50" as="geometry" />
        </mxCell>
        <mxCell id="pLhTArJAU5WP38agBvPa-5" value="Інтерфейс бази даних" style="shape=module;align=left;spacingLeft=20;align=center;verticalAlign=top;whiteSpace=wrap;html=1;" vertex="1" parent="1">
          <mxGeometry x="350" y="620" width="100" height="50" as="geometry" />
        </mxCell>
        <mxCell id="pLhTArJAU5WP38agBvPa-7" value="База даних" style="verticalAlign=top;align=left;spacingTop=8;spacingLeft=2;spacingRight=12;shape=cube;size=10;direction=south;fontStyle=4;html=1;whiteSpace=wrap;" vertex="1" parent="1">
          <mxGeometry x="90" y="490" width="180" height="190" as="geometry" />
        </mxCell>
        <mxCell id="pLhTArJAU5WP38agBvPa-8" value="SQL database" style="shape=module;align=left;spacingLeft=20;align=center;verticalAlign=top;whiteSpace=wrap;html=1;" vertex="1" parent="1">
          <mxGeometry x="110" y="620" width="100" height="50" as="geometry" />
        </mxCell>
        <mxCell id="pLhTArJAU5WP38agBvPa-9" value="" style="endArrow=block;startArrow=block;endFill=1;startFill=1;html=1;rounded=0;" edge="1" parent="1" source="pLhTArJAU5WP38agBvPa-2" target="pLhTArJAU5WP38agBvPa-4">
          <mxGeometry width="160" relative="1" as="geometry">
            <mxPoint x="370" y="420" as="sourcePoint" />
            <mxPoint x="530" y="420" as="targetPoint" />
          </mxGeometry>
        </mxCell>
        <mxCell id="pLhTArJAU5WP38agBvPa-10" value="" style="endArrow=block;startArrow=block;endFill=1;startFill=1;html=1;rounded=0;" edge="1" parent="1" source="pLhTArJAU5WP38agBvPa-4">
          <mxGeometry width="160" relative="1" as="geometry">
            <mxPoint x="410" y="320" as="sourcePoint" />
            <mxPoint x="400" y="530" as="targetPoint" />
          </mxGeometry>
        </mxCell>
        <mxCell id="pLhTArJAU5WP38agBvPa-11" value="" style="endArrow=block;startArrow=block;endFill=1;startFill=1;html=1;rounded=0;" edge="1" parent="1" source="pLhTArJAU5WP38agBvPa-8" target="pLhTArJAU5WP38agBvPa-5">
          <mxGeometry width="160" relative="1" as="geometry">
            <mxPoint x="420" y="330" as="sourcePoint" />
            <mxPoint x="420" y="470" as="targetPoint" />
          </mxGeometry>
        </mxCell>
        <mxCell id="pLhTArJAU5WP38agBvPa-6" value="" style="shape=datastore;whiteSpace=wrap;html=1;" vertex="1" parent="1">
          <mxGeometry x="140" y="540" width="60" height="60" as="geometry" />
        </mxCell>
        <mxCell id="pLhTArJAU5WP38agBvPa-13" value="Програмна система" style="shape=module;align=left;spacingLeft=20;align=center;verticalAlign=top;whiteSpace=wrap;html=1;" vertex="1" parent="1">
          <mxGeometry x="350" y="530" width="100" height="50" as="geometry" />
        </mxCell>
        <mxCell id="pLhTArJAU5WP38agBvPa-14" value="" style="endArrow=block;startArrow=block;endFill=1;startFill=1;html=1;rounded=0;" edge="1" parent="1" source="pLhTArJAU5WP38agBvPa-13" target="pLhTArJAU5WP38agBvPa-5">
          <mxGeometry width="160" relative="1" as="geometry">
            <mxPoint x="370" y="550" as="sourcePoint" />
            <mxPoint x="530" y="550" as="targetPoint" />
          </mxGeometry>
        </mxCell>
        <mxCell id="pLhTArJAU5WP38agBvPa-15" value="Персональний Комп&#39;ютер Директора" style="verticalAlign=top;align=left;spacingTop=8;spacingLeft=2;spacingRight=12;shape=cube;size=10;direction=south;fontStyle=4;html=1;whiteSpace=wrap;" vertex="1" parent="1">
          <mxGeometry x="540" y="220" width="180" height="120" as="geometry" />
        </mxCell>
        <mxCell id="pLhTArJAU5WP38agBvPa-16" value="Локальна копія програми у формі веб-браузера" style="shape=module;align=left;spacingLeft=20;align=center;verticalAlign=top;whiteSpace=wrap;html=1;" vertex="1" parent="1">
          <mxGeometry x="550" y="280" width="140" height="50" as="geometry" />
        </mxCell>
        <mxCell id="pLhTArJAU5WP38agBvPa-17" value="" style="endArrow=block;startArrow=block;endFill=1;startFill=1;html=1;rounded=0;" edge="1" parent="1" source="pLhTArJAU5WP38agBvPa-16" target="pLhTArJAU5WP38agBvPa-4">
          <mxGeometry width="160" relative="1" as="geometry">
            <mxPoint x="560" y="350" as="sourcePoint" />
            <mxPoint x="560" y="490" as="targetPoint" />
            <Array as="points">
              <mxPoint x="620" y="475" />
            </Array>
          </mxGeometry>
        </mxCell>
        <mxCell id="pLhTArJAU5WP38agBvPa-18" value="Персональний Комп&#39;ютер&lt;div&gt;{OS=Windows}&lt;/div&gt;" style="verticalAlign=top;align=left;spacingTop=8;spacingLeft=2;spacingRight=12;shape=cube;size=10;direction=south;fontStyle=4;html=1;whiteSpace=wrap;" vertex="1" parent="1">
          <mxGeometry x="1120" y="230" width="180" height="120" as="geometry" />
        </mxCell>
        <mxCell id="pLhTArJAU5WP38agBvPa-19" value="Локальна копія програми у формі веб-браузера" style="shape=module;align=left;spacingLeft=20;align=center;verticalAlign=top;whiteSpace=wrap;html=1;" vertex="1" parent="1">
          <mxGeometry x="1130" y="280" width="140" height="50" as="geometry" />
        </mxCell>
        <mxCell id="pLhTArJAU5WP38agBvPa-20" value="Веб-сервер компанії (приватний сервер, суміщає сервер сервісу)" style="verticalAlign=top;align=left;spacingTop=8;spacingLeft=2;spacingRight=12;shape=cube;size=10;direction=south;fontStyle=4;html=1;whiteSpace=wrap;" vertex="1" parent="1">
          <mxGeometry x="1120" y="410" width="580" height="390" as="geometry" />
        </mxCell>
        <mxCell id="pLhTArJAU5WP38agBvPa-21" value="Веб-інтерфейс" style="shape=module;align=left;spacingLeft=20;align=center;verticalAlign=top;whiteSpace=wrap;html=1;" vertex="1" parent="1">
          <mxGeometry x="1150" y="460" width="100" height="50" as="geometry" />
        </mxCell>
        <mxCell id="pLhTArJAU5WP38agBvPa-22" value="Інтерфейс бази даних" style="shape=module;align=left;spacingLeft=20;align=center;verticalAlign=top;whiteSpace=wrap;html=1;" vertex="1" parent="1">
          <mxGeometry x="1150" y="630" width="100" height="50" as="geometry" />
        </mxCell>
        <mxCell id="pLhTArJAU5WP38agBvPa-23" value="База даних" style="verticalAlign=top;align=left;spacingTop=8;spacingLeft=2;spacingRight=12;shape=cube;size=10;direction=south;fontStyle=4;html=1;whiteSpace=wrap;" vertex="1" parent="1">
          <mxGeometry x="890" y="500" width="180" height="190" as="geometry" />
        </mxCell>
        <mxCell id="pLhTArJAU5WP38agBvPa-24" value="SQL database" style="shape=module;align=left;spacingLeft=20;align=center;verticalAlign=top;whiteSpace=wrap;html=1;" vertex="1" parent="1">
          <mxGeometry x="910" y="630" width="100" height="50" as="geometry" />
        </mxCell>
        <mxCell id="pLhTArJAU5WP38agBvPa-25" value="" style="endArrow=block;startArrow=block;endFill=1;startFill=1;html=1;rounded=0;" edge="1" parent="1" source="pLhTArJAU5WP38agBvPa-19" target="pLhTArJAU5WP38agBvPa-21">
          <mxGeometry width="160" relative="1" as="geometry">
            <mxPoint x="1170" y="430" as="sourcePoint" />
            <mxPoint x="1330" y="430" as="targetPoint" />
          </mxGeometry>
        </mxCell>
        <mxCell id="pLhTArJAU5WP38agBvPa-26" value="" style="endArrow=block;startArrow=block;endFill=1;startFill=1;html=1;rounded=0;" edge="1" parent="1" source="pLhTArJAU5WP38agBvPa-21">
          <mxGeometry width="160" relative="1" as="geometry">
            <mxPoint x="1210" y="330" as="sourcePoint" />
            <mxPoint x="1200" y="540" as="targetPoint" />
          </mxGeometry>
        </mxCell>
        <mxCell id="pLhTArJAU5WP38agBvPa-27" value="" style="endArrow=block;startArrow=block;endFill=1;startFill=1;html=1;rounded=0;" edge="1" parent="1" source="pLhTArJAU5WP38agBvPa-24" target="pLhTArJAU5WP38agBvPa-22">
          <mxGeometry width="160" relative="1" as="geometry">
            <mxPoint x="1220" y="340" as="sourcePoint" />
            <mxPoint x="1220" y="480" as="targetPoint" />
          </mxGeometry>
        </mxCell>
        <mxCell id="pLhTArJAU5WP38agBvPa-28" value="" style="shape=datastore;whiteSpace=wrap;html=1;" vertex="1" parent="1">
          <mxGeometry x="940" y="550" width="60" height="60" as="geometry" />
        </mxCell>
        <mxCell id="pLhTArJAU5WP38agBvPa-29" value="Програмна система" style="shape=module;align=left;spacingLeft=20;align=center;verticalAlign=top;whiteSpace=wrap;html=1;" vertex="1" parent="1">
          <mxGeometry x="1150" y="540" width="100" height="50" as="geometry" />
        </mxCell>
        <mxCell id="pLhTArJAU5WP38agBvPa-30" value="" style="endArrow=block;startArrow=block;endFill=1;startFill=1;html=1;rounded=0;" edge="1" parent="1" source="pLhTArJAU5WP38agBvPa-29" target="pLhTArJAU5WP38agBvPa-22">
          <mxGeometry width="160" relative="1" as="geometry">
            <mxPoint x="1170" y="560" as="sourcePoint" />
            <mxPoint x="1330" y="560" as="targetPoint" />
          </mxGeometry>
        </mxCell>
        <mxCell id="pLhTArJAU5WP38agBvPa-31" value="Персональний Комп&#39;ютер Директора&lt;div&gt;{OS=Windows}&lt;/div&gt;" style="verticalAlign=top;align=left;spacingTop=8;spacingLeft=2;spacingRight=12;shape=cube;size=10;direction=south;fontStyle=4;html=1;whiteSpace=wrap;" vertex="1" parent="1">
          <mxGeometry x="1340" y="230" width="180" height="120" as="geometry" />
        </mxCell>
        <mxCell id="pLhTArJAU5WP38agBvPa-32" value="Локальна копія програми у формі веб-браузера" style="shape=module;align=left;spacingLeft=20;align=center;verticalAlign=top;whiteSpace=wrap;html=1;" vertex="1" parent="1">
          <mxGeometry x="1350" y="290" width="140" height="50" as="geometry" />
        </mxCell>
        <mxCell id="pLhTArJAU5WP38agBvPa-33" value="" style="endArrow=block;startArrow=block;endFill=1;startFill=1;html=1;rounded=0;" edge="1" parent="1" source="pLhTArJAU5WP38agBvPa-32" target="pLhTArJAU5WP38agBvPa-21">
          <mxGeometry width="160" relative="1" as="geometry">
            <mxPoint x="1360" y="360" as="sourcePoint" />
            <mxPoint x="1360" y="500" as="targetPoint" />
            <Array as="points">
              <mxPoint x="1420" y="485" />
            </Array>
          </mxGeometry>
        </mxCell>
        <mxCell id="pLhTArJAU5WP38agBvPa-34" value="&lt;b&gt;TaskControlGI.exe&lt;/b&gt;" style="html=1;dropTarget=0;whiteSpace=wrap;" vertex="1" parent="1">
          <mxGeometry x="1260" y="610" width="180" height="90" as="geometry" />
        </mxCell>
        <mxCell id="pLhTArJAU5WP38agBvPa-35" value="" style="shape=module;jettyWidth=8;jettyHeight=4;" vertex="1" parent="pLhTArJAU5WP38agBvPa-34">
          <mxGeometry x="1" width="20" height="20" relative="1" as="geometry">
            <mxPoint x="-27" y="7" as="offset" />
          </mxGeometry>
        </mxCell>
        <mxCell id="pLhTArJAU5WP38agBvPa-46" value="&lt;b&gt;EJB container&lt;/b&gt;&lt;div&gt;&lt;b&gt;&lt;br&gt;&lt;/b&gt;&lt;/div&gt;&lt;div&gt;TaskCompany.ear&lt;/div&gt;&lt;div&gt;TaskProfile.ear&lt;/div&gt;&lt;div&gt;TaskManager.ear&lt;/div&gt;&lt;div&gt;TaskEmployee.ear&lt;/div&gt;&lt;div&gt;TaskDirector.ear&lt;/div&gt;&lt;div&gt;TaskProject.ear&lt;/div&gt;&lt;div&gt;TaskTask.ear&lt;/div&gt;&lt;div&gt;TaskHistory.ear&lt;/div&gt;&lt;div&gt;TaskCommit.ear&lt;/div&gt;&lt;div&gt;TaskDeask.ear&lt;/div&gt;&lt;div&gt;TaskRequest.ear&lt;/div&gt;&lt;div&gt;TaskReport.ear&lt;/div&gt;&lt;div&gt;TaskReportEmployee.ear&lt;/div&gt;&lt;div&gt;TaskReportProject.ear&lt;/div&gt;&lt;div&gt;TaskReportCompany.ear&lt;/div&gt;&lt;div&gt;TaskRequest.ear&lt;/div&gt;&lt;div&gt;TaskRequestProfileChange.ear&lt;/div&gt;&lt;div&gt;TaskRequestComplete.ear&lt;/div&gt;&lt;div&gt;TaskGitHubAPI.ear&lt;/div&gt;&lt;div&gt;TaskShow.ear&lt;/div&gt;" style="verticalAlign=top;align=left;spacingTop=8;spacingLeft=2;spacingRight=12;shape=cube;size=10;direction=south;fontStyle=4;html=1;whiteSpace=wrap;" vertex="1" parent="1">
          <mxGeometry x="1490" y="445" width="180" height="340" as="geometry" />
        </mxCell>
        <mxCell id="pLhTArJAU5WP38agBvPa-47" value="" style="line;strokeWidth=1;fillColor=none;align=left;verticalAlign=middle;spacingTop=-1;spacingLeft=3;spacingRight=3;rotatable=0;labelPosition=right;points=[];portConstraint=eastwest;strokeColor=inherit;" vertex="1" parent="1">
          <mxGeometry x="1490" y="482" width="170" height="8" as="geometry" />
        </mxCell>
        <mxCell id="pLhTArJAU5WP38agBvPa-48" value="" style="endArrow=block;startArrow=block;endFill=1;startFill=1;html=1;rounded=0;" edge="1" parent="1" source="pLhTArJAU5WP38agBvPa-29" target="pLhTArJAU5WP38agBvPa-46">
          <mxGeometry width="160" relative="1" as="geometry">
            <mxPoint x="1310" y="570" as="sourcePoint" />
            <mxPoint x="1470" y="570" as="targetPoint" />
          </mxGeometry>
        </mxCell>
        <mxCell id="pLhTArJAU5WP38agBvPa-49" value="JDBC" style="text;html=1;align=center;verticalAlign=middle;resizable=0;points=[];autosize=1;strokeColor=none;fillColor=none;" vertex="1" parent="1">
          <mxGeometry x="1200" y="600" width="50" height="30" as="geometry" />
        </mxCell>
        <mxCell id="pLhTArJAU5WP38agBvPa-50" value="http/internet" style="text;html=1;align=center;verticalAlign=middle;resizable=0;points=[];autosize=1;strokeColor=none;fillColor=none;" vertex="1" parent="1">
          <mxGeometry x="1115" y="348" width="90" height="30" as="geometry" />
        </mxCell>
        <mxCell id="pLhTArJAU5WP38agBvPa-51" value="Java RMI" style="text;html=1;align=center;verticalAlign=middle;resizable=0;points=[];autosize=1;strokeColor=none;fillColor=none;" vertex="1" parent="1">
          <mxGeometry x="1205" y="510" width="70" height="30" as="geometry" />
        </mxCell>
        <mxCell id="pLhTArJAU5WP38agBvPa-52" value="http/LAN" style="text;html=1;align=center;verticalAlign=middle;resizable=0;points=[];autosize=1;strokeColor=none;fillColor=none;" vertex="1" parent="1">
          <mxGeometry x="1405" y="368" width="70" height="30" as="geometry" />
        </mxCell>
      </root>
    </mxGraphModel>
  </diagram>
</mxfile>
